<svg xmlns="http://www.w3.org/2000/svg" width="240" height="45" viewBox="0 0 240 45" fill="none"><path d="M132.524 33.6127C132.524 33.3717 132.524 33.1909 132.524 33.0252C132.524 26.3818 132.524 19.7534 132.524 13.11C132.524 12.5074 132.524 12.5074 133.097 12.5074C138.399 12.5074 143.717 12.5074 149.02 12.5225C150.692 12.5225 152.319 12.7786 153.87 13.4113C155.015 13.8632 155.995 14.5261 156.793 15.4902C158.571 17.6444 158.36 20.4012 156.281 22.2541C156.025 22.4801 155.769 22.676 155.467 22.932C155.633 23.0676 155.769 23.1731 155.904 23.2936C158.586 25.4478 158.736 28.7921 156.251 31.1723C154.925 32.4377 153.313 33.0855 151.535 33.3566C150.496 33.5224 149.426 33.6127 148.372 33.6278C143.25 33.6579 138.128 33.6429 133.006 33.6429C132.886 33.6127 132.735 33.6127 132.524 33.6127ZM136.727 29.9822C136.953 29.9822 137.134 29.9822 137.33 29.9822C140.96 29.9822 144.606 29.9822 148.236 29.9822C148.914 29.9822 149.607 29.9671 150.285 29.8918C151.264 29.8014 152.198 29.5604 153.027 29.003C153.494 28.6867 153.855 28.2799 153.946 27.6924C154.081 26.8337 153.705 26.1106 152.831 25.6135C151.701 24.9657 150.466 24.7398 149.185 24.7398C146.052 24.7247 142.934 24.7398 139.8 24.7398C139.635 24.7398 139.469 24.7398 139.288 24.7398C139.288 23.5045 139.288 22.3295 139.288 21.1092C139.499 21.1092 139.665 21.1092 139.845 21.1092C142.828 21.1092 145.811 21.1243 148.794 21.0942C149.487 21.0942 150.195 21.049 150.873 20.9134C151.566 20.7628 152.259 20.5519 152.876 20.2204C154.383 19.407 154.368 17.8252 152.891 16.9665C152.575 16.7857 152.244 16.605 151.897 16.5447C150.858 16.379 149.803 16.153 148.749 16.153C144.922 16.1078 141.096 16.138 137.269 16.138C137.104 16.138 136.923 16.153 136.742 16.1681C136.727 20.7628 136.727 25.3273 136.727 29.9822Z" fill="white"></path><path d="M183.849 22.917C184.195 23.2183 184.542 23.4895 184.843 23.8058C186.756 25.7341 186.892 28.4909 185.144 30.5848C183.879 32.0913 182.207 32.9048 180.324 33.2512C179.194 33.4621 178.019 33.5977 176.859 33.5977C171.677 33.6279 166.51 33.6128 161.328 33.6128C161.192 33.6128 161.071 33.5977 160.906 33.5977C160.891 33.417 160.876 33.2362 160.876 33.0705C160.876 26.3969 160.876 19.7384 160.876 13.0649C160.876 12.7787 160.815 12.4924 161.282 12.4924C166.675 12.5075 172.068 12.5075 177.477 12.5226C179.134 12.5226 180.746 12.7937 182.282 13.4114C183.502 13.9085 184.557 14.6466 185.34 15.7162C186.847 17.7349 186.666 20.2205 184.888 21.9981C184.587 22.3145 184.225 22.6007 183.849 22.917ZM165.079 29.9823C165.32 29.9823 165.5 29.9823 165.696 29.9823C169.342 29.9823 173.002 29.9823 176.648 29.9823C177.311 29.9823 177.989 29.9672 178.652 29.8919C179.616 29.8015 180.535 29.5605 181.363 29.0181C182.011 28.5963 182.388 28.0088 182.312 27.1953C182.237 26.3969 181.755 25.9149 181.092 25.5533C179.992 24.9507 178.802 24.7248 177.567 24.7248C174.419 24.7097 171.285 24.7248 168.137 24.7248C167.971 24.7248 167.805 24.7248 167.624 24.7248C167.624 23.4744 167.624 22.2994 167.624 21.0942C167.85 21.0942 168.016 21.0942 168.182 21.0942C171.165 21.0942 174.147 21.1093 177.13 21.0792C177.823 21.0792 178.531 21.0038 179.209 20.8984C180.038 20.7779 180.821 20.5218 181.514 20.0247C182.599 19.2262 182.599 17.9006 181.499 17.1473C181.107 16.8762 180.67 16.6352 180.203 16.5448C179.164 16.3489 178.109 16.1531 177.07 16.138C173.243 16.0928 169.417 16.123 165.591 16.123C165.425 16.123 165.259 16.138 165.064 16.1531C165.079 20.7628 165.079 25.3424 165.079 29.9823Z" fill="white"></path><path d="M122.763 27.3157C124.013 28.4004 125.203 29.4248 126.378 30.4491C127.568 31.4735 128.743 32.4979 130.009 33.5826C129.828 33.6127 129.722 33.6277 129.617 33.6277C127.824 33.6277 126.032 33.6428 124.254 33.6127C124.043 33.6127 123.787 33.4922 123.606 33.3415C121.557 31.5639 119.524 29.7863 117.505 27.9936C117.249 27.7677 116.993 27.6773 116.646 27.6773C114.477 27.6923 112.308 27.6773 110.139 27.6773C109.973 27.6773 109.792 27.6773 109.596 27.6773C109.596 26.4571 109.596 25.282 109.596 24.0468C109.762 24.0468 109.928 24.0468 110.093 24.0468C113.182 24.0468 116.255 24.0468 119.343 24.0468C120.578 24.0468 121.783 23.881 122.913 23.3538C123.998 22.8567 124.841 22.1185 125.067 20.8983C125.384 19.1508 124.811 17.5992 123.064 16.8008C122.16 16.394 121.196 16.1982 120.232 16.1982C115.908 16.168 111.585 16.1831 107.276 16.1831C107.216 16.1831 107.156 16.1982 107.05 16.2132C107.05 21.998 107.05 27.7827 107.05 33.5976C105.634 33.5976 104.279 33.5976 102.893 33.5976C102.893 26.5926 102.893 19.6027 102.893 12.5827C103.013 12.5676 103.134 12.5526 103.239 12.5526C108.738 12.5526 114.236 12.5224 119.735 12.5827C122.115 12.6128 124.39 13.1552 126.453 14.4206C130.219 16.7104 130.732 22.465 127.026 25.3423C125.911 26.216 124.661 26.7885 123.29 27.1651C123.154 27.1952 123.019 27.2404 122.763 27.3157Z" fill="white"></path><path d="M84.7096 33.6128C83.2333 33.6128 81.772 33.673 80.2957 33.5977C77.2979 33.4471 74.6164 32.4679 72.3869 30.404C70.1423 28.3251 69.1179 25.7491 69.133 22.7061C69.148 17.2528 73.0045 14.2851 76.6953 13.1552C78.021 12.7485 79.3919 12.5376 80.7778 12.5376C83.5195 12.5225 86.2763 12.4773 89.018 12.5527C92.0309 12.6431 94.8028 13.5168 97.1077 15.5354C99.1715 17.3432 100.166 19.633 100.286 22.3446C100.572 28.7018 95.8272 32.3323 91.5941 33.2211C90.4793 33.4471 89.3193 33.5224 88.1744 33.5826C87.0145 33.6429 85.8545 33.5977 84.6795 33.5977C84.7096 33.6278 84.7096 33.6128 84.7096 33.6128ZM84.7397 29.9822C86.0654 29.9822 87.3911 29.9973 88.7168 29.9822C89.9972 29.9521 91.2325 29.681 92.3774 29.1085C94.5166 28.0239 95.9176 26.3818 96.1435 23.9414C96.3996 21.2599 95.4355 19.1057 93.1909 17.5842C91.8502 16.6803 90.3588 16.2284 88.762 16.2133C86.0805 16.1681 83.4141 16.1681 80.7326 16.2133C79.0153 16.2435 77.4335 16.7858 76.0174 17.7951C72.402 20.3561 72.3116 26.2312 76.4091 28.7168C77.7197 29.5152 79.1358 29.937 80.6573 29.9822C81.998 30.0124 83.3689 29.9822 84.7397 29.9822Z" fill="white"></path><path d="M189.136 12.5677C196.593 12.5677 204.035 12.5677 211.492 12.5677C211.492 13.7729 211.492 14.9479 211.492 16.1682C205.421 16.1682 199.38 16.1682 193.294 16.1682C193.294 20.7779 193.294 25.3575 193.294 29.9973C199.35 29.9973 205.406 29.9973 211.492 29.9973C211.492 31.2175 211.492 32.3926 211.492 33.5977C204.05 33.5977 196.608 33.5977 189.121 33.5977C189.136 26.5927 189.136 19.5878 189.136 12.5677Z" fill="white"></path><path d="M239.768 12.5677C239.768 13.7879 239.768 14.963 239.768 16.1832C239.572 16.1832 239.406 16.1832 239.226 16.1832C234.752 16.1832 230.262 16.1832 225.788 16.1832C224.237 16.1832 222.76 16.5447 221.42 17.3582C219.115 18.7592 217.955 20.823 218.09 23.5346C218.226 26.3216 219.778 28.1594 222.248 29.2742C223.303 29.7562 224.432 29.9822 225.592 29.9822C230.127 29.9973 234.676 29.9973 239.211 29.9973C239.376 29.9973 239.557 29.9973 239.768 29.9973C239.768 31.2024 239.768 32.3925 239.768 33.5977C239.663 33.6127 239.572 33.6278 239.482 33.6278C234.691 33.6278 229.901 33.7182 225.125 33.5826C221.133 33.4772 217.789 31.8201 215.514 28.4306C212.788 24.3632 212.848 16.7104 220.275 13.5921C221.902 12.9142 223.604 12.5526 225.366 12.5526C230.051 12.5225 234.737 12.5376 239.422 12.5376C239.512 12.5376 239.617 12.5526 239.768 12.5677Z" fill="white"></path><path d="M30.5227 11.5132C31.3965 11.7994 32.3154 12.1308 32.2552 13.2004C32.1949 14.2399 31.276 14.5261 30.3872 14.8123C30.5529 14.8876 30.7186 14.9479 30.8692 15.0232C31.6375 15.3998 31.7731 16.0175 31.2006 16.6502C31.0952 16.7707 30.9747 16.9063 30.9445 17.0419C30.583 18.5031 30.2365 19.9644 29.9804 21.0791C29.8298 20.341 29.6339 19.2262 29.3778 18.1265C29.2423 17.5239 29.1067 16.9213 28.6246 16.4543C28.2329 16.0627 28.3836 15.4902 28.8958 15.1588C29.1217 15.0082 29.3778 14.9178 29.6942 14.7521C28.7602 14.511 27.8563 14.27 27.7509 13.2607C27.6304 12.1158 28.6096 11.8296 29.4381 11.4228C29.2121 11.3626 28.9711 11.3324 28.7602 11.2571C27.7961 10.9408 26.9675 10.4738 26.7416 9.37405C26.621 8.81667 26.8169 8.34967 27.1634 7.92787C27.5852 7.41567 28.1426 7.12945 28.7753 6.94868C28.9259 6.90348 29.0615 6.85829 29.1971 6.70765C29.0012 6.66245 28.7903 6.61726 28.5945 6.57207C27.6605 6.36116 26.8018 5.98455 26.1239 5.27652C25.0092 4.14669 24.9941 2.61012 26.1089 1.46522C27.9768 -0.463032 31.9237 -0.49316 33.8219 1.40496C35.0571 2.64024 34.9818 4.35759 33.6411 5.48743C32.8577 6.15026 31.9539 6.48168 30.9596 6.64739C30.8843 6.66245 30.824 6.67752 30.7336 6.7679C30.8542 6.8131 30.9897 6.84323 31.1103 6.90348C31.6526 7.20477 32.2702 7.41568 32.7071 7.82242C33.4904 8.53044 33.4452 9.61508 32.7071 10.3834C32.1798 10.9257 31.517 11.1969 30.7939 11.3324C30.7186 11.3475 30.6583 11.3626 30.583 11.3927C30.583 11.4228 30.583 11.4379 30.5227 11.5132Z" fill="white"></path><path d="M29.604 30.2383C29.2876 30.0425 28.9863 29.922 28.7453 29.7111C28.3687 29.3947 28.2783 28.9127 28.6097 28.5963C29.1671 28.0389 29.2876 27.3309 29.4382 26.6229C29.6642 25.6135 29.845 24.5892 29.9655 23.9113C30.2367 25.0411 30.5681 26.4873 30.9146 27.9335C30.9598 28.0841 31.0803 28.2348 31.2008 28.3553C31.7582 28.9578 31.6377 29.6056 30.8995 29.9672C30.7639 30.0425 30.6133 30.0877 30.3572 30.1931C30.553 30.2685 30.6585 30.2986 30.7489 30.3588C31.1104 30.5547 31.5322 30.6903 31.8335 30.9614C32.4361 31.4887 32.4361 32.257 31.8335 32.7842C31.4719 33.1006 31.005 33.2813 30.5681 33.5525C30.6735 33.5826 30.794 33.6128 30.9146 33.673C31.4569 33.9291 32.0745 34.0948 32.5415 34.4564C33.5358 35.2397 33.5358 36.5654 32.5265 37.3337C32.0143 37.7254 31.3816 37.9664 30.779 38.2827C30.8392 38.2978 30.9598 38.343 31.0652 38.3731C32.1047 38.5539 33.0537 38.9305 33.8069 39.6837C35.0272 40.8889 35.0121 42.5309 33.7316 43.6758C32.4963 44.7755 31.005 45.1069 29.3931 44.9714C28.3385 44.881 27.3744 44.5646 26.5308 43.9319C24.8285 42.6514 24.8587 40.5725 26.5911 39.3222C27.269 38.8251 28.0373 38.5388 28.8658 38.3882C28.9863 38.3581 29.1219 38.3279 29.2725 38.2978C28.7001 38.0266 28.1427 37.8459 27.6757 37.5446C26.3952 36.701 26.3952 35.1493 27.6757 34.3057C28.0824 34.0346 28.5946 33.899 29.0616 33.7031C29.1822 33.658 29.3328 33.6278 29.5738 33.5525C28.6398 33.2211 27.7058 32.9349 27.751 31.8502C27.7962 30.7505 28.7453 30.5245 29.604 30.2383Z" fill="white"></path><path d="M210.422 21.1394C210.422 22.3295 210.422 23.5045 210.422 24.7097C210.257 24.7247 210.106 24.7398 209.955 24.7398C205.165 24.7398 200.389 24.7398 195.599 24.7548C195.207 24.7548 195.072 24.6494 195.087 24.2427C195.117 23.3237 195.102 22.4199 195.087 21.5009C195.087 21.1996 195.192 21.1093 195.494 21.1093C200.359 21.1243 205.24 21.1093 210.106 21.1093C210.196 21.1093 210.302 21.1243 210.422 21.1394Z" fill="white"></path><path d="M40.1491 43.0883C39.0645 43.028 37.7237 42.6815 36.7747 41.4613C36.0817 40.5575 36.1269 39.4578 36.8651 38.584C37.6936 37.5898 38.8234 37.1981 40.0437 37.0926C41.3543 36.9872 42.5895 37.2583 43.6591 38.0718C45.1053 39.1715 45.1204 40.9793 43.6892 42.1091C42.8607 42.7569 41.7761 43.0883 40.1491 43.0883Z" fill="white"></path><path d="M15.2476 5.26147C15.2326 3.96593 15.7448 3.31816 16.4528 2.7909C18.0647 1.60081 20.8215 1.60081 22.4484 2.76077C24.1055 3.95086 24.1206 5.83392 22.4635 7.02401C20.716 8.27436 17.8387 8.18398 16.2268 6.84324C15.564 6.30092 15.2476 5.66821 15.2476 5.26147Z" fill="white"></path><path d="M49.0974 38.825C47.8922 38.825 46.9131 38.5689 46.0845 37.891C44.8793 36.8968 44.8643 35.4205 46.0544 34.4111C47.606 33.0855 50.4683 33.1307 51.9898 34.4865C53.1648 35.541 53.0142 37.1227 51.6433 38.0718C50.8449 38.6292 49.941 38.8552 49.0974 38.825Z" fill="white"></path><path d="M11.1501 11.5432C9.91481 11.5583 8.92056 11.2871 8.07695 10.5791C6.88686 9.5698 6.93205 8.03323 8.16733 7.0691C9.7491 5.83382 12.3553 5.84888 13.9069 7.09923C15.097 8.06336 15.1422 9.53967 13.9822 10.549C13.2441 11.2118 12.2197 11.5432 11.1501 11.5432Z" fill="white"></path><path d="M5.03392 12.643C6.4801 12.628 7.44423 12.8991 8.21251 13.6524C9.07119 14.496 9.05612 15.6258 8.19745 16.4694C6.90191 17.7499 4.19031 17.8252 2.81944 16.6201C1.67454 15.6107 1.76493 14.2097 3.04541 13.3209C3.69318 12.869 4.47653 12.643 5.03392 12.643Z" fill="white"></path><path d="M54.4151 27.5418C55.6052 27.5418 56.5542 27.7979 57.3225 28.536C58.2264 29.4098 58.1661 30.7053 57.202 31.5037C55.8462 32.6335 53.4359 32.6787 52.0349 31.5941C50.8448 30.6752 50.8297 29.2892 52.0047 28.3552C52.758 27.7376 53.6317 27.5267 54.4151 27.5418Z" fill="white"></path><path d="M3.07545 24.6193C2.14146 24.6193 1.29785 24.3934 0.604884 23.7305C-0.25379 22.902 -0.193532 21.7571 0.755528 21.0189C1.96068 20.0548 3.97932 20.0096 5.24473 20.8984C6.44989 21.7571 6.44989 23.1581 5.22967 24.0017C4.61203 24.4084 3.91906 24.6193 3.07545 24.6193Z" fill="white"></path><path d="M56.9307 20.4012C57.699 20.371 58.407 20.5518 59.0397 20.9736C60.3051 21.8172 60.3051 23.2634 59.0548 24.1221C57.8797 24.9205 55.9816 24.9205 54.8066 24.1221C53.5713 23.2785 53.5562 21.8474 54.7915 21.0037C55.4393 20.5518 56.1624 20.371 56.9307 20.4012Z" fill="white"></path><path d="M37.332 36.9118C36.5486 36.8817 35.7653 36.7009 35.1175 36.1436C34.1835 35.3451 34.2287 34.1852 35.1777 33.4169C36.3528 32.4829 38.4467 32.498 39.6067 33.447C40.5859 34.2454 40.5407 35.5109 39.5012 36.249C38.8685 36.7009 38.1454 36.8968 37.332 36.9118Z" fill="white"></path><path d="M22.569 12.2514C21.8911 12.2665 21.2283 12.1158 20.6257 11.7091C19.3753 10.8956 19.3753 9.4645 20.6106 8.65102C21.7405 7.91286 23.5482 7.92793 24.663 8.68115C25.8531 9.49463 25.8681 10.8203 24.7082 11.6639C24.0754 12.1158 23.3674 12.2816 22.569 12.2514Z" fill="white"></path><path d="M54.852 13.0799C55.5901 13.0498 56.3132 13.2758 56.9309 13.803C57.7142 14.496 57.7293 15.4752 56.961 16.1983C55.8914 17.1925 53.7523 17.2226 52.6526 16.2585C51.7487 15.4601 51.8391 14.3152 52.8635 13.6222C53.3907 13.2456 54.0084 13.0799 54.852 13.0799Z" fill="white"></path><path d="M5.41041 31.9407C4.43123 31.9407 3.70813 31.7448 3.09049 31.2176C2.26195 30.5095 2.27701 29.44 3.10555 28.7319C4.145 27.8582 6.14857 27.813 7.21815 28.6415C8.22747 29.4249 8.19734 30.63 7.14283 31.3682C6.58544 31.7749 5.93767 31.9557 5.41041 31.9407Z" fill="white"></path><path d="M43.3727 30.1781C44.0958 30.1932 44.8189 30.389 45.4064 30.9464C46.0994 31.6092 46.0692 32.5884 45.3612 33.2061C44.2916 34.1401 42.3634 34.1551 41.2787 33.2512C40.405 32.5131 40.4351 31.4586 41.339 30.7807C41.9265 30.3438 42.5894 30.1781 43.3727 30.1781Z" fill="white"></path><path d="M16.754 11.0914C17.4168 11.0914 18.0495 11.2571 18.5918 11.6639C19.6162 12.4171 19.6011 13.562 18.5617 14.3002C17.5524 15.0233 15.8802 15.0082 14.8558 14.3002C13.7863 13.562 13.8013 12.3267 14.886 11.6036C15.4132 11.2571 16.0158 11.0914 16.754 11.0914Z" fill="white"></path><path d="M11.1801 37.8759C10.3816 37.891 9.67361 37.6801 9.11623 37.1076C8.55885 36.5352 8.55885 35.797 9.10117 35.1945C10.0653 34.1249 12.2798 34.1249 13.2439 35.1794C13.7862 35.782 13.7862 36.5503 13.1987 37.1227C12.6262 37.6801 11.9333 37.891 11.1801 37.8759Z" fill="white"></path><path d="M48.8413 10.5942C48.1182 10.6093 47.4855 10.4436 46.9582 9.99167C46.1899 9.3439 46.1899 8.42497 46.9281 7.76213C47.9073 6.90346 49.8355 6.91852 50.7695 7.7772C51.5077 8.4551 51.5077 9.3439 50.7243 9.99167C50.182 10.4436 49.5342 10.6244 48.8413 10.5942Z" fill="white"></path><path d="M47.1841 29.4098C46.4309 29.3495 45.7379 29.1838 45.2107 28.6113C44.7136 28.069 44.7136 27.3459 45.1956 26.8036C46.0995 25.7943 48.2236 25.7792 49.1576 26.7735C49.715 27.361 49.6999 28.0992 49.1274 28.6716C48.5851 29.2139 47.9072 29.3495 47.1841 29.4098Z" fill="white"></path><path d="M12.8223 18.9551C12.0842 18.9852 11.4515 18.7894 10.9091 18.3073C10.2764 17.7198 10.2614 16.9214 10.879 16.3188C11.798 15.4149 13.7111 15.3999 14.6451 16.2736C15.3532 16.9214 15.3381 17.765 14.5999 18.3826C14.1028 18.8044 13.4852 18.9852 12.8223 18.9551Z" fill="white"></path><path d="M19.2998 41.9585C18.6972 41.9284 18.1248 41.7777 17.6427 41.3861C16.9498 40.8287 16.9498 39.9399 17.6277 39.3674C18.5315 38.6142 20.1284 38.5991 21.0322 39.3524C21.7402 39.9399 21.7252 40.8739 20.987 41.4313C20.4748 41.8079 19.9024 41.9434 19.2998 41.9585Z" fill="white"></path><path d="M40.7365 3.06208C41.2638 3.03195 41.8061 3.19766 42.3032 3.54414C43.0414 4.0714 43.0866 4.94513 42.4388 5.56278C41.5651 6.40638 39.7423 6.39132 38.8836 5.53265C38.3413 4.99033 38.3262 4.25217 38.8685 3.70985C39.3657 3.24285 39.9833 3.06208 40.7365 3.06208Z" fill="white"></path><path d="M48.8865 24.0167C48.2236 24.0317 47.6211 23.8811 47.139 23.4291C46.5665 22.8868 46.5967 22.0733 47.2143 21.5762C48.0579 20.8682 49.5644 20.8531 50.423 21.5461C51.1612 22.1336 51.1612 22.9772 50.408 23.5647C49.9711 23.9112 49.4439 24.0317 48.8865 24.0167Z" fill="white"></path><path d="M33.6561 32.0762C32.8728 31.5942 32.9782 30.6301 33.7164 30.1028C34.5148 29.5454 35.7953 29.5454 36.5937 30.0877C37.3771 30.6301 37.4222 31.5791 36.6238 32.0913C36.202 32.3775 34.8613 32.8295 33.6561 32.0762Z" fill="white"></path><path d="M24.8586 15.2944C24.2259 15.3094 23.6685 15.1739 23.2015 14.737C22.6743 14.2399 22.6743 13.5318 23.1865 13.0347C24 12.2363 25.7022 12.2514 26.5007 13.0648C26.9978 13.577 26.9978 14.2248 26.4856 14.7219C26.0337 15.1588 25.4612 15.3245 24.8586 15.2944Z" fill="white"></path><path d="M47.4704 18.6086C46.7473 18.6086 46.2502 18.4579 45.8284 18.0813C45.3012 17.5992 45.3162 16.9213 45.8435 16.4393C46.6118 15.7463 48.1032 15.7463 48.8564 16.4393C49.3384 16.8761 49.3686 17.554 48.9016 18.021C48.4647 18.4579 47.9073 18.6086 47.4704 18.6086Z" fill="white"></path><path d="M37.9194 30.0123C37.3168 29.6056 37.3469 28.7921 37.9344 28.3401C38.6726 27.7677 39.923 27.7526 40.6611 28.3251C41.2788 28.7921 41.2938 29.6357 40.631 30.0424C40.2393 30.2835 39.0342 30.645 37.9194 30.0123Z" fill="white"></path><path d="M20.6556 14.5563C21.2581 14.5563 21.7553 14.6768 22.162 15.0534C22.6441 15.5053 22.6441 16.123 22.1771 16.59C21.454 17.298 19.9927 17.3131 19.2546 16.6051C18.7574 16.1381 18.7725 15.4903 19.2696 15.0384C19.6764 14.6617 20.1735 14.5412 20.6556 14.5563Z" fill="white"></path><path d="M44.4574 12.176C44.9997 12.5225 45.0147 13.2305 44.5477 13.6824C43.8548 14.3453 42.4688 14.3302 41.7909 13.6674C41.3541 13.2305 41.3691 12.5375 41.8964 12.1911C42.966 11.5282 44.0958 11.935 44.4574 12.176Z" fill="white"></path><path d="M17.944 19.9945C17.4469 20.0095 16.9949 19.8739 16.6334 19.5124C16.2266 19.1207 16.2266 18.6085 16.6183 18.2018C17.2661 17.5239 18.6671 17.5239 19.3149 18.2018C19.7065 18.6085 19.7065 19.1057 19.2998 19.5124C18.9232 19.8739 18.4562 20.0095 17.944 19.9945Z" fill="white"></path><path d="M42.0021 25.026C42.5294 25.011 42.9964 25.1164 43.373 25.493C43.7646 25.8847 43.7646 26.412 43.373 26.8037C42.7403 27.4514 41.3694 27.4665 40.7066 26.8187C40.2848 26.3969 40.2697 25.8998 40.6915 25.478C41.0681 25.1315 41.52 24.9959 42.0021 25.026Z" fill="white"></path><path d="M23.5028 34.2002C24.2409 34.622 24.2409 35.4355 23.4877 35.8423C22.7947 36.2189 22.0867 36.2038 21.4239 35.7519C20.8364 35.3602 20.8364 34.622 21.4389 34.2454C21.7704 34.0797 22.6592 33.7784 23.5028 34.2002Z" fill="white"></path><path d="M36.2474 10.5943C35.7805 10.2328 35.8407 9.67538 36.2926 9.2837C36.8802 8.78657 37.9949 8.77151 38.6126 9.25357C39.1097 9.64525 39.17 10.2478 38.6728 10.6094C38.3414 10.8655 37.3321 11.2571 36.2474 10.5943Z" fill="white"></path><path d="M42.5895 23.4594C42.0623 23.2937 41.7007 22.887 41.7158 22.4953C41.7309 22.1187 42.1527 21.6969 42.6498 21.5613C43.1469 21.4257 43.629 21.4558 44.0809 21.6969C44.4123 21.8776 44.6835 22.1337 44.6684 22.5405C44.6534 22.9322 44.3822 23.2033 44.0357 23.354C43.7645 23.4745 43.3729 23.6402 42.5895 23.4594Z" fill="white"></path><path d="M15.7146 23.1279C15.2024 22.7663 15.2175 22.209 15.6995 21.8022C16.272 21.3202 17.3566 21.3202 17.9291 21.8022C18.3961 22.1939 18.3961 22.8417 17.8688 23.1731C16.9499 23.7305 16.0159 23.3539 15.7146 23.1279Z" fill="white"></path><path d="M41.1132 19.3769C40.6914 19.0605 40.7366 18.5634 41.1433 18.232C41.6555 17.8102 42.6046 17.8102 43.1167 18.232C43.5235 18.5634 43.5837 19.0605 43.1619 19.3769C42.8908 19.5878 41.9417 19.9494 41.1132 19.3769Z" fill="white"></path><path d="M20.7461 30.0123C20.1134 30.0123 19.6012 29.6357 19.6163 29.1687C19.6163 28.7318 20.1134 28.3703 20.7311 28.3552C20.7461 28.3552 20.7612 28.3552 20.7763 28.3552C21.409 28.3552 21.9212 28.7168 21.9212 29.1687C21.9212 29.6508 21.409 30.0274 20.7461 30.0123Z" fill="white"></path><path d="M39.2451 15.0081C39.923 15.0081 40.4352 15.3847 40.4051 15.8667C40.375 16.3337 39.7272 16.7254 39.1246 16.6501C38.507 16.5748 38.04 16.2132 38.055 15.8065C38.0701 15.3545 38.5974 15.0081 39.2451 15.0081Z" fill="white"></path><path d="M24.7832 30.5245C25.3557 30.5245 25.8528 30.9011 25.8227 31.2928C25.7926 31.6996 25.1448 32.0762 24.6326 31.9858C24.0752 31.8954 23.7137 31.579 23.7287 31.2024C23.7438 30.8409 24.2409 30.5245 24.7832 30.5245Z" fill="white"></path><path d="M35.238 13.0046C35.8104 13.0046 36.3226 13.3813 36.2774 13.7729C36.2473 14.1646 35.6146 14.5412 35.1024 14.481C34.53 14.4056 34.1383 14.0592 34.1835 13.6675C34.2287 13.3059 34.7107 13.0046 35.238 13.0046Z" fill="white"></path><path d="M17.9138 27.0899C17.2208 27.0748 16.6635 26.6681 16.6785 26.171C16.6785 25.6889 17.2208 25.2972 17.8987 25.2671C17.9138 25.2671 17.9289 25.2671 17.9439 25.2671C18.6369 25.2671 19.1943 25.6588 19.2093 26.171C19.1943 26.6982 18.6218 27.105 17.9138 27.0899Z" fill="white"></path><path d="M10.9995 23.9714C10.3367 23.9865 9.7642 23.8208 9.29721 23.3839C8.72476 22.8567 8.72476 22.1487 9.28214 21.6063C10.0956 20.8079 11.813 20.7778 12.6566 21.5611C13.2893 22.1486 13.2742 22.8868 12.6114 23.4442C12.1444 23.8359 11.587 24.0016 10.9995 23.9714Z" fill="white"></path><path d="M12.4755 29.0482C11.888 29.0633 11.3909 28.9126 10.9691 28.536C10.472 28.069 10.4569 27.4363 10.954 26.9693C11.6771 26.2613 13.1836 26.2462 13.9368 26.9241C14.4942 27.4363 14.4791 28.0992 13.9067 28.5812C13.4848 28.9277 12.9877 29.0633 12.4755 29.0482Z" fill="white"></path><path d="M16.7089 33.206C16.1967 33.2211 15.7448 33.0855 15.3682 32.7541C14.9163 32.3473 14.9163 31.7899 15.3531 31.3681C16.0009 30.7354 17.3266 30.7204 17.9894 31.338C18.4865 31.7899 18.4715 32.3774 17.9593 32.8143C17.5977 33.1005 17.1609 33.2361 16.7089 33.206Z" fill="white"></path></svg>