<svg xmlns="http://www.w3.org/2000/svg" width="240" height="70" viewBox="0 0 240 70" fill="none"><path d="M132.524 33.6128C132.524 33.3717 132.524 33.191 132.524 33.0253C132.524 26.3818 132.524 19.7535 132.524 13.1101C132.524 12.5075 132.524 12.5075 133.097 12.5075C138.399 12.5075 143.717 12.5075 149.02 12.5225C150.692 12.5225 152.319 12.7786 153.871 13.4113C155.015 13.8633 155.995 14.5261 156.793 15.4902C158.571 17.6445 158.36 20.4012 156.281 22.2542C156.025 22.4801 155.769 22.676 155.467 22.9321C155.633 23.0677 155.769 23.1731 155.904 23.2936C158.586 25.4478 158.736 28.7921 156.251 31.1723C154.925 32.4377 153.313 33.0855 151.536 33.3567C150.496 33.5224 149.427 33.6128 148.372 33.6278C143.25 33.658 138.128 33.6429 133.006 33.6429C132.886 33.6128 132.735 33.6128 132.524 33.6128ZM136.727 29.9822C136.953 29.9822 137.134 29.9822 137.33 29.9822C140.96 29.9822 144.606 29.9822 148.236 29.9822C148.914 29.9822 149.607 29.9672 150.285 29.8919C151.264 29.8015 152.198 29.5604 153.027 29.003C153.494 28.6867 153.855 28.28 153.946 27.6924C154.081 26.8338 153.705 26.1107 152.831 25.6135C151.701 24.9658 150.466 24.7398 149.186 24.7398C146.052 24.7247 142.934 24.7398 139.8 24.7398C139.635 24.7398 139.469 24.7398 139.288 24.7398C139.288 23.5045 139.288 22.3295 139.288 21.1093C139.499 21.1093 139.665 21.1093 139.846 21.1093C142.828 21.1093 145.811 21.1243 148.794 21.0942C149.487 21.0942 150.195 21.049 150.873 20.9134C151.566 20.7628 152.259 20.5519 152.876 20.2205C154.383 19.407 154.368 17.8252 152.891 16.9666C152.575 16.7858 152.244 16.605 151.897 16.5447C150.858 16.379 149.803 16.1531 148.749 16.1531C144.922 16.1079 141.096 16.138 137.27 16.138C137.104 16.138 136.923 16.1531 136.742 16.1681C136.727 20.7628 136.727 25.3273 136.727 29.9822Z" fill="white"></path><path d="M183.849 22.917C184.195 23.2183 184.542 23.4894 184.843 23.8058C186.756 25.734 186.892 28.4908 185.144 30.5848C183.879 32.0912 182.207 32.9047 180.324 33.2512C179.194 33.4621 178.019 33.5977 176.859 33.5977C171.677 33.6278 166.51 33.6127 161.327 33.6127C161.192 33.6127 161.071 33.5977 160.906 33.5977C160.891 33.4169 160.875 33.2361 160.875 33.0704C160.875 26.3969 160.875 19.7384 160.875 13.0648C160.875 12.7786 160.815 12.4924 161.282 12.4924C166.675 12.5074 172.068 12.5074 177.476 12.5225C179.134 12.5225 180.745 12.7937 182.282 13.4113C183.502 13.9084 184.557 14.6466 185.34 15.7162C186.847 17.7348 186.666 20.2204 184.888 21.998C184.587 22.3144 184.225 22.6006 183.849 22.917ZM165.078 29.9822C165.319 29.9822 165.5 29.9822 165.696 29.9822C169.342 29.9822 173.002 29.9822 176.648 29.9822C177.311 29.9822 177.989 29.9671 178.652 29.8918C179.616 29.8014 180.535 29.5604 181.363 29.0181C182.011 28.5963 182.387 28.0088 182.312 27.1953C182.237 26.3969 181.755 25.9148 181.092 25.5532C179.992 24.9507 178.802 24.7247 177.567 24.7247C174.418 24.7096 171.285 24.7247 168.137 24.7247C167.971 24.7247 167.805 24.7247 167.624 24.7247C167.624 23.4744 167.624 22.2993 167.624 21.0942C167.85 21.0942 168.016 21.0942 168.182 21.0942C171.164 21.0942 174.147 21.1092 177.13 21.0791C177.823 21.0791 178.531 21.0038 179.209 20.8983C180.037 20.7778 180.821 20.5217 181.514 20.0246C182.598 19.2262 182.598 17.9005 181.499 17.1473C181.107 16.8761 180.67 16.6351 180.203 16.5447C179.164 16.3489 178.109 16.153 177.07 16.138C173.243 16.0928 169.417 16.1229 165.591 16.1229C165.425 16.1229 165.259 16.138 165.063 16.153C165.078 20.7628 165.078 25.3423 165.078 29.9822Z" fill="white"></path><path d="M122.762 27.3158C124.013 28.4004 125.203 29.4248 126.378 30.4492C127.568 31.4736 128.743 32.498 130.008 33.5826C129.828 33.6127 129.722 33.6278 129.617 33.6278C127.824 33.6278 126.031 33.6429 124.254 33.6127C124.043 33.6127 123.787 33.4922 123.606 33.3416C121.557 31.564 119.524 29.7864 117.505 27.9937C117.249 27.7677 116.993 27.6773 116.646 27.6773C114.477 27.6924 112.308 27.6773 110.138 27.6773C109.973 27.6773 109.792 27.6773 109.596 27.6773C109.596 26.4571 109.596 25.2821 109.596 24.0468C109.762 24.0468 109.928 24.0468 110.093 24.0468C113.181 24.0468 116.255 24.0468 119.343 24.0468C120.578 24.0468 121.783 23.8811 122.913 23.3538C123.998 22.8567 124.841 22.1186 125.067 20.8983C125.384 19.1509 124.811 17.5992 123.064 16.8008C122.16 16.3941 121.196 16.1982 120.232 16.1982C115.908 16.1681 111.585 16.1832 107.276 16.1832C107.216 16.1832 107.156 16.1982 107.05 16.2133C107.05 21.998 107.05 27.7828 107.05 33.5977C105.634 33.5977 104.278 33.5977 102.892 33.5977C102.892 26.5927 102.892 19.6028 102.892 12.5828C103.013 12.5677 103.133 12.5526 103.239 12.5526C108.737 12.5526 114.236 12.5225 119.735 12.5828C122.115 12.6129 124.389 13.1552 126.453 14.4206C130.219 16.7104 130.732 22.465 127.026 25.3424C125.911 26.2161 124.661 26.7885 123.29 27.1652C123.154 27.1953 123.019 27.2405 122.762 27.3158Z" fill="white"></path><path d="M84.7096 33.6127C83.2333 33.6127 81.772 33.673 80.2957 33.5977C77.2979 33.447 74.6164 32.4678 72.3869 30.404C70.1423 28.3251 69.1179 25.7491 69.133 22.7061C69.148 17.2528 73.0045 14.2851 76.6953 13.1552C78.021 12.7485 79.3919 12.5376 80.7778 12.5376C83.5195 12.5225 86.2763 12.4773 89.018 12.5526C92.0309 12.643 94.8028 13.5168 97.1077 15.5354C99.1715 17.3431 100.166 19.6329 100.286 22.3445C100.572 28.7017 95.8272 32.3323 91.5941 33.2211C90.4793 33.447 89.3193 33.5224 88.1744 33.5826C87.0145 33.6429 85.8545 33.5977 84.6795 33.5977C84.7096 33.6278 84.7096 33.6127 84.7096 33.6127ZM84.7397 29.9822C86.0654 29.9822 87.3911 29.9973 88.7168 29.9822C89.9972 29.9521 91.2325 29.6809 92.3774 29.1085C94.5166 28.0238 95.9176 26.3818 96.1435 23.9414C96.3996 21.2599 95.4355 19.1057 93.1909 17.5842C91.8502 16.6803 90.3588 16.2284 88.762 16.2133C86.0805 16.1681 83.4141 16.1681 80.7326 16.2133C79.0153 16.2434 77.4335 16.7858 76.0174 17.7951C72.402 20.356 72.3116 26.2312 76.4091 28.7168C77.7197 29.5152 79.1358 29.937 80.6573 29.9822C81.998 30.0123 83.3689 29.9822 84.7397 29.9822Z" fill="white"></path><path d="M189.137 12.5677C196.593 12.5677 204.035 12.5677 211.492 12.5677C211.492 13.7729 211.492 14.9479 211.492 16.1681C205.421 16.1681 199.38 16.1681 193.294 16.1681C193.294 20.7778 193.294 25.3574 193.294 29.9973C199.35 29.9973 205.406 29.9973 211.492 29.9973C211.492 31.2175 211.492 32.3925 211.492 33.5977C204.05 33.5977 196.608 33.5977 189.121 33.5977C189.137 26.5927 189.137 19.5878 189.137 12.5677Z" fill="white"></path><path d="M239.768 12.5677C239.768 13.788 239.768 14.963 239.768 16.1832C239.572 16.1832 239.406 16.1832 239.226 16.1832C234.752 16.1832 230.262 16.1832 225.788 16.1832C224.237 16.1832 222.76 16.5448 221.42 17.3582C219.115 18.7592 217.955 20.8231 218.09 23.5347C218.226 26.3216 219.778 28.1594 222.248 29.2742C223.303 29.7563 224.432 29.9822 225.592 29.9822C230.127 29.9973 234.676 29.9973 239.211 29.9973C239.376 29.9973 239.557 29.9973 239.768 29.9973C239.768 31.2025 239.768 32.3926 239.768 33.5977C239.663 33.6128 239.572 33.6278 239.482 33.6278C234.691 33.6278 229.901 33.7182 225.125 33.5826C221.133 33.4772 217.789 31.8201 215.514 28.4306C212.788 24.3632 212.848 16.7105 220.275 13.5921C221.902 12.9142 223.604 12.5527 225.366 12.5527C230.051 12.5225 234.737 12.5376 239.422 12.5376C239.512 12.5376 239.617 12.5527 239.768 12.5677Z" fill="white"></path><path d="M30.5228 11.5132C31.3965 11.7994 32.3155 12.1308 32.2552 13.2004C32.195 14.2399 31.276 14.5261 30.3872 14.8123C30.5529 14.8876 30.7186 14.9479 30.8693 15.0232C31.6376 15.3998 31.7732 16.0175 31.2007 16.6502C31.0953 16.7707 30.9747 16.9063 30.9446 17.0419C30.5831 18.5031 30.2366 19.9644 29.9805 21.0791C29.8298 20.341 29.634 19.2262 29.3779 18.1265C29.2423 17.5239 29.1067 16.9213 28.6247 16.4543C28.233 16.0627 28.3836 15.4902 28.8958 15.1588C29.1218 15.0082 29.3779 14.9178 29.6943 14.7521C28.7603 14.511 27.8564 14.27 27.7509 13.2607C27.6304 12.1158 28.6096 11.8296 29.4382 11.4228C29.2122 11.3626 28.9712 11.3324 28.7603 11.2571C27.7961 10.9408 26.9676 10.4738 26.7416 9.37405C26.6211 8.81667 26.8169 8.34967 27.1634 7.92787C27.5852 7.41567 28.1426 7.12945 28.7753 6.94868C28.926 6.90348 29.0615 6.85829 29.1971 6.70765C29.0013 6.66245 28.7904 6.61726 28.5946 6.57207C27.6606 6.36116 26.8019 5.98455 26.124 5.27652C25.0092 4.14669 24.9941 2.61012 26.1089 1.46522C27.9769 -0.463032 31.9238 -0.49316 33.8219 1.40496C35.0572 2.64024 34.9819 4.35759 33.6411 5.48743C32.8578 6.15026 31.9539 6.48168 30.9597 6.64739C30.8843 6.66245 30.8241 6.67752 30.7337 6.7679C30.8542 6.8131 30.9898 6.84323 31.1103 6.90348C31.6526 7.20477 32.2703 7.41568 32.7071 7.82242C33.4905 8.53044 33.4453 9.61508 32.7071 10.3834C32.1799 10.9257 31.5171 11.1969 30.794 11.3324C30.7186 11.3475 30.6584 11.3626 30.5831 11.3927C30.5831 11.4228 30.5831 11.4379 30.5228 11.5132Z" fill="#0078F0"></path><path d="M29.6039 30.2383C29.2875 30.0425 28.9863 29.922 28.7452 29.7111C28.3686 29.3947 28.2782 28.9127 28.6096 28.5963C29.167 28.0389 29.2875 27.3309 29.4382 26.6229C29.6642 25.6135 29.8449 24.5892 29.9654 23.9113C30.2366 25.0411 30.568 26.4873 30.9145 27.9335C30.9597 28.0841 31.0802 28.2348 31.2007 28.3553C31.7581 28.9578 31.6376 29.6056 30.8994 29.9672C30.7639 30.0425 30.6132 30.0877 30.3571 30.1931C30.553 30.2685 30.6584 30.2986 30.7488 30.3588C31.1103 30.5547 31.5321 30.6903 31.8334 30.9614C32.436 31.4887 32.436 32.257 31.8334 32.7842C31.4719 33.1006 31.0049 33.2813 30.568 33.5525C30.6735 33.5826 30.794 33.6128 30.9145 33.673C31.4568 33.9291 32.0745 34.0948 32.5415 34.4564C33.5357 35.2397 33.5357 36.5654 32.5264 37.3337C32.0142 37.7254 31.3815 37.9664 30.7789 38.2827C30.8392 38.2978 30.9597 38.343 31.0651 38.3731C32.1046 38.5539 33.0537 38.9305 33.8069 39.6837C35.0271 40.8889 35.012 42.5309 33.7316 43.6758C32.4963 44.7755 31.0049 45.1069 29.393 44.9714C28.3385 44.881 27.3744 44.5646 26.5307 43.9319C24.8285 42.6514 24.8586 40.5725 26.591 39.3222C27.2689 38.8251 28.0372 38.5388 28.8657 38.3882C28.9863 38.3581 29.1218 38.3279 29.2725 38.2978C28.7 38.0266 28.1426 37.8459 27.6756 37.5446C26.3952 36.701 26.3952 35.1493 27.6756 34.3057C28.0824 34.0346 28.5946 33.899 29.0616 33.7031C29.1821 33.658 29.3327 33.6278 29.5738 33.5525C28.6398 33.2211 27.7058 32.9349 27.751 31.8502C27.7962 30.7505 28.7452 30.5245 29.6039 30.2383Z" fill="#0078F0"></path><path d="M210.422 21.1394C210.422 22.3295 210.422 23.5045 210.422 24.7097C210.257 24.7247 210.106 24.7398 209.955 24.7398C205.165 24.7398 200.389 24.7398 195.599 24.7548C195.207 24.7548 195.072 24.6494 195.087 24.2427C195.117 23.3237 195.102 22.4199 195.087 21.5009C195.087 21.1996 195.192 21.1093 195.494 21.1093C200.359 21.1243 205.24 21.1093 210.106 21.1093C210.196 21.1093 210.302 21.1243 210.422 21.1394Z" fill="white"></path><path d="M40.1492 43.0883C39.0645 43.028 37.7238 42.6815 36.7747 41.4613C36.0818 40.5574 36.127 39.4577 36.8651 38.584C37.6937 37.5897 38.8235 37.1981 40.0437 37.0926C41.3543 36.9872 42.5896 37.2583 43.6592 38.0718C45.1054 39.1715 45.1204 40.9792 43.6893 42.1091C42.8608 42.7568 41.7761 43.0883 40.1492 43.0883Z" fill="#0078F0"></path><path d="M15.2476 5.26144C15.2325 3.9659 15.7447 3.31813 16.4527 2.79087C18.0646 1.60078 20.8214 1.60078 22.4484 2.76074C24.1055 3.95083 24.1205 5.83389 22.4634 7.02398C20.716 8.27433 17.8387 8.18394 16.2268 6.84321C15.5639 6.30089 15.2476 5.66818 15.2476 5.26144Z" fill="#0078F0"></path><path d="M49.0973 38.825C47.8922 38.825 46.913 38.5689 46.0844 37.891C44.8793 36.8967 44.8642 35.4204 46.0543 34.4111C47.606 33.0854 50.4682 33.1306 51.9897 34.4864C53.1647 35.541 53.0141 37.1227 51.6432 38.0718C50.8448 38.6292 49.9409 38.8551 49.0973 38.825Z" fill="#0078F0"></path><path d="M11.15 11.5433C9.91469 11.5584 8.92043 11.2872 8.07683 10.5792C6.88673 9.56986 6.93193 8.03329 8.16721 7.06916C9.74898 5.83388 12.3551 5.84894 13.9068 7.09929C15.0969 8.06342 15.1421 9.53973 13.9821 10.5491C13.2439 11.2119 12.2195 11.5433 11.15 11.5433Z" fill="#0078F0"></path><path d="M5.03386 12.643C6.48004 12.628 7.44417 12.8991 8.21245 13.6524C9.07113 14.496 9.05606 15.6258 8.19739 16.4694C6.90185 17.7499 4.19025 17.8252 2.81938 16.6201C1.67448 15.6107 1.76487 14.2097 3.04535 13.3209C3.69312 12.869 4.47647 12.643 5.03386 12.643Z" fill="#0078F0"></path><path d="M54.4151 27.5417C55.6052 27.5417 56.5543 27.7978 57.3226 28.536C58.2264 29.4097 58.1662 30.7053 57.202 31.5037C55.8462 32.6335 53.4359 32.6787 52.0349 31.5941C50.8448 30.6751 50.8298 29.2892 52.0048 28.3552C52.758 27.7376 53.6318 27.5267 54.4151 27.5417Z" fill="#0078F0"></path><path d="M3.07545 24.6193C2.14146 24.6193 1.29785 24.3933 0.604884 23.7305C-0.25379 22.9019 -0.193532 21.757 0.755528 21.0189C1.96068 20.0548 3.97932 20.0096 5.24473 20.8984C6.44989 21.757 6.44989 23.158 5.22967 24.0016C4.61203 24.4084 3.91906 24.6193 3.07545 24.6193Z" fill="#0078F0"></path><path d="M56.9308 20.4012C57.6991 20.3711 58.4071 20.5518 59.0398 20.9736C60.3052 21.8173 60.3052 23.2634 59.0549 24.1221C57.8799 24.9205 55.9817 24.9205 54.8067 24.1221C53.5714 23.2785 53.5564 21.8474 54.7916 21.0038C55.4394 20.5518 56.1625 20.3711 56.9308 20.4012Z" fill="#0078F0"></path><path d="M37.332 36.9118C36.5487 36.8817 35.7653 36.7009 35.1175 36.1436C34.1836 35.3451 34.2287 34.1852 35.1778 33.4169C36.3528 32.4829 38.4468 32.498 39.6068 33.447C40.5859 34.2454 40.5408 35.5109 39.5013 36.249C38.8686 36.7009 38.1455 36.8968 37.332 36.9118Z" fill="#0078F0"></path><path d="M22.5689 12.2514C21.891 12.2665 21.2281 12.1158 20.6256 11.7091C19.3752 10.8956 19.3752 9.46447 20.6105 8.65099C21.7403 7.91283 23.5481 7.9279 24.6628 8.68112C25.8529 9.4946 25.868 10.8203 24.708 11.6639C24.0753 12.1158 23.3673 12.2815 22.5689 12.2514Z" fill="#0078F0"></path><path d="M54.852 13.0799C55.5902 13.0497 56.3133 13.2757 56.9309 13.803C57.7143 14.4959 57.7293 15.4751 56.9611 16.1982C55.8915 17.1925 53.7523 17.2226 52.6526 16.2585C51.7488 15.46 51.8392 14.3151 52.8635 13.6222C53.3908 13.2456 54.0084 13.0799 54.852 13.0799Z" fill="#0078F0"></path><path d="M5.41048 31.9407C4.43129 31.9407 3.70819 31.7448 3.09055 31.2176C2.26201 30.5095 2.27707 29.44 3.10562 28.7319C4.14506 27.8582 6.14863 27.813 7.21821 28.6415C8.22753 29.4249 8.1974 30.63 7.14289 31.3682C6.5855 31.7749 5.93773 31.9557 5.41048 31.9407Z" fill="#0078F0"></path><path d="M43.3728 30.1781C44.0959 30.1932 44.819 30.389 45.4065 30.9464C46.0995 31.6092 46.0694 32.5884 45.3613 33.2061C44.2918 34.1401 42.3635 34.1551 41.2789 33.2512C40.4051 32.5131 40.4353 31.4586 41.3391 30.7807C41.9266 30.3438 42.5895 30.1781 43.3728 30.1781Z" fill="#0078F0"></path><path d="M16.754 11.0914C17.4169 11.0914 18.0496 11.2571 18.5919 11.6638C19.6163 12.4171 19.6012 13.562 18.5618 14.3001C17.5524 15.0232 15.8803 15.0082 14.8559 14.3001C13.7863 13.562 13.8014 12.3267 14.886 11.6036C15.4133 11.2571 16.0159 11.0914 16.754 11.0914Z" fill="#0078F0"></path><path d="M11.1801 37.876C10.3817 37.891 9.67368 37.6801 9.11629 37.1077C8.55891 36.5352 8.55891 35.7971 9.10123 35.1945C10.0654 34.1249 12.2798 34.1249 13.2439 35.1794C13.7863 35.782 13.7863 36.5503 13.1988 37.1227C12.6263 37.6801 11.9333 37.891 11.1801 37.876Z" fill="#0078F0"></path><path d="M48.8413 10.5943C48.1182 10.6093 47.4855 10.4436 46.9582 9.9917C46.1899 9.34393 46.1899 8.425 46.9281 7.76216C47.9073 6.90349 49.8355 6.91855 50.7695 7.77723C51.5077 8.45513 51.5077 9.34393 50.7243 9.9917C50.182 10.4436 49.5342 10.6244 48.8413 10.5943Z" fill="#0078F0"></path><path d="M47.1843 29.4098C46.431 29.3495 45.7381 29.1838 45.2108 28.6113C44.7137 28.069 44.7137 27.3459 45.1957 26.8036C46.0996 25.7943 48.2237 25.7792 49.1577 26.7735C49.7151 27.361 49.7 28.0992 49.1276 28.6716C48.5852 29.2139 47.9073 29.3495 47.1843 29.4098Z" fill="#0078F0"></path><path d="M12.8222 18.955C12.0841 18.9852 11.4513 18.7893 10.909 18.3073C10.2763 17.7197 10.2613 16.9213 10.8789 16.3188C11.7978 15.4149 13.711 15.3998 14.645 16.2736C15.353 16.9213 15.338 17.7649 14.5998 18.3826C14.1027 18.8044 13.485 18.9852 12.8222 18.955Z" fill="#0078F0"></path><path d="M19.2999 41.9585C18.6973 41.9284 18.1248 41.7777 17.6428 41.386C16.9498 40.8286 16.9498 39.9398 17.6277 39.3674C18.5316 38.6142 20.1284 38.5991 21.0323 39.3523C21.7403 39.9398 21.7252 40.8738 20.9871 41.4312C20.4749 41.8078 19.9024 41.9434 19.2999 41.9585Z" fill="#0078F0"></path><path d="M40.7366 3.06208C41.2638 3.03195 41.8062 3.19766 42.3033 3.54414C43.0414 4.0714 43.0866 4.94513 42.4389 5.56278C41.5651 6.40638 39.7423 6.39132 38.8836 5.53265C38.3413 4.99033 38.3263 4.25217 38.8686 3.70985C39.3657 3.24285 39.9834 3.06208 40.7366 3.06208Z" fill="#0078F0"></path><path d="M48.8865 24.0167C48.2236 24.0317 47.6211 23.8811 47.139 23.4291C46.5665 22.8868 46.5967 22.0733 47.2143 21.5762C48.0579 20.8682 49.5644 20.8531 50.423 21.5461C51.1612 22.1336 51.1612 22.9772 50.408 23.5647C49.9711 23.9112 49.4439 24.0317 48.8865 24.0167Z" fill="#0078F0"></path><path d="M33.6563 32.0762C32.8729 31.5942 32.9784 30.63 33.7165 30.1028C34.5149 29.5454 35.7954 29.5454 36.5938 30.0877C37.3772 30.63 37.4224 31.5791 36.624 32.0913C36.2021 32.3775 34.8614 32.8294 33.6563 32.0762Z" fill="#0078F0"></path><path d="M24.8587 15.2944C24.226 15.3095 23.6686 15.1739 23.2016 14.737C22.6743 14.2399 22.6744 13.5319 23.1865 13.0347C24 12.2363 25.7023 12.2514 26.5007 13.0649C26.9978 13.5771 26.9978 14.2248 26.4857 14.722C26.0337 15.1588 25.4613 15.3245 24.8587 15.2944Z" fill="#0078F0"></path><path d="M47.4704 18.6086C46.7473 18.6086 46.2502 18.4579 45.8284 18.0813C45.3011 17.5992 45.3162 16.9213 45.8434 16.4393C46.6117 15.7463 48.1031 15.7463 48.8563 16.4393C49.3384 16.8761 49.3685 17.554 48.9015 18.021C48.4646 18.4579 47.9073 18.6086 47.4704 18.6086Z" fill="#0078F0"></path><path d="M37.9194 30.0123C37.3169 29.6056 37.347 28.7921 37.9345 28.3402C38.6727 27.7677 39.923 27.7527 40.6612 28.3251C41.2788 28.7921 41.2939 29.6357 40.631 30.0425C40.2394 30.2835 39.0342 30.645 37.9194 30.0123Z" fill="#0078F0"></path><path d="M20.6556 14.5563C21.2582 14.5563 21.7553 14.6768 22.1621 15.0534C22.6441 15.5053 22.6441 16.123 22.1771 16.59C21.454 17.298 19.9928 17.3131 19.2546 16.605C18.7575 16.138 18.7726 15.4903 19.2697 15.0383C19.6764 14.6617 20.1736 14.5412 20.6556 14.5563Z" fill="#0078F0"></path><path d="M44.4574 12.176C44.9997 12.5225 45.0148 13.2305 44.5478 13.6825C43.8548 14.3453 42.4689 14.3302 41.791 13.6674C41.3541 13.2305 41.3692 12.5376 41.8965 12.1911C42.966 11.5282 44.0959 11.935 44.4574 12.176Z" fill="#0078F0"></path><path d="M17.944 19.9945C17.4469 20.0096 16.995 19.874 16.6334 19.5124C16.2267 19.1207 16.2267 18.6086 16.6184 18.2018C17.2661 17.5239 18.6671 17.5239 19.3149 18.2018C19.7066 18.6086 19.7066 19.1057 19.2998 19.5124C18.9232 19.874 18.4562 20.0096 17.944 19.9945Z" fill="#0078F0"></path><path d="M42.002 25.026C42.5293 25.011 42.9963 25.1164 43.3729 25.493C43.7646 25.8847 43.7646 26.4119 43.3729 26.8036C42.7402 27.4514 41.3693 27.4665 40.7065 26.8187C40.2847 26.3969 40.2696 25.8998 40.6914 25.478C41.068 25.1315 41.52 24.9959 42.002 25.026Z" fill="#0078F0"></path><path d="M23.5028 34.2003C24.241 34.6221 24.241 35.4355 23.4878 35.8423C22.7948 36.2189 22.0868 36.2038 21.4239 35.7519C20.8364 35.3602 20.8364 34.6221 21.439 34.2455C21.7704 34.0797 22.6592 33.7785 23.5028 34.2003Z" fill="#0078F0"></path><path d="M36.2474 10.5943C35.7804 10.2327 35.8407 9.67535 36.2926 9.28367C36.8801 8.78654 37.9949 8.77148 38.6125 9.25354C39.1096 9.64522 39.1699 10.2478 38.6728 10.6093C38.3413 10.8654 37.332 11.2571 36.2474 10.5943Z" fill="#0078F0"></path><path d="M42.5895 23.4594C42.0622 23.2936 41.7007 22.8869 41.7157 22.4952C41.7308 22.1186 42.1526 21.6968 42.6497 21.5612C43.1468 21.4257 43.6289 21.4558 44.0808 21.6968C44.4123 21.8776 44.6834 22.1337 44.6684 22.5404C44.6533 22.9321 44.3821 23.2033 44.0356 23.3539C43.7645 23.4744 43.3728 23.6401 42.5895 23.4594Z" fill="#0078F0"></path><path d="M15.7145 23.1279C15.2024 22.7663 15.2174 22.2089 15.6995 21.8022C16.2719 21.3201 17.3566 21.3201 17.929 21.8022C18.396 22.1939 18.396 22.8416 17.8688 23.1731C16.9498 23.7304 16.0158 23.3538 15.7145 23.1279Z" fill="#0078F0"></path><path d="M41.1132 19.3768C40.6914 19.0605 40.7366 18.5634 41.1433 18.2319C41.6555 17.8101 42.6046 17.8101 43.1167 18.2319C43.5235 18.5634 43.5837 19.0605 43.1619 19.3768C42.8908 19.5877 41.9417 19.9493 41.1132 19.3768Z" fill="#0078F0"></path><path d="M20.7461 30.0124C20.1134 30.0124 19.6012 29.6358 19.6162 29.1688C19.6162 28.7319 20.1134 28.3704 20.731 28.3553C20.7461 28.3553 20.7611 28.3553 20.7762 28.3553C21.4089 28.3553 21.9211 28.7168 21.9211 29.1688C21.9211 29.6508 21.4089 30.0274 20.7461 30.0124Z" fill="#0078F0"></path><path d="M39.2453 15.0081C39.9232 15.0081 40.4353 15.3847 40.4052 15.8668C40.3751 16.3338 39.7273 16.7255 39.1247 16.6501C38.5071 16.5748 38.0401 16.2133 38.0552 15.8065C38.0702 15.3546 38.5975 15.0081 39.2453 15.0081Z" fill="#0078F0"></path><path d="M24.7832 30.5245C25.3557 30.5245 25.8528 30.9011 25.8227 31.2928C25.7926 31.6995 25.1448 32.0761 24.6326 31.9858C24.0752 31.8954 23.7137 31.579 23.7287 31.2024C23.7438 30.8409 24.2409 30.5245 24.7832 30.5245Z" fill="#0078F0"></path><path d="M35.238 13.0046C35.8104 13.0046 36.3226 13.3812 36.2774 13.7729C36.2473 14.1645 35.6146 14.5412 35.1024 14.4809C34.53 14.4056 34.1383 14.0591 34.1835 13.6674C34.2287 13.3059 34.7107 13.0046 35.238 13.0046Z" fill="#0078F0"></path><path d="M17.9139 27.0899C17.221 27.0748 16.6636 26.6681 16.6786 26.171C16.6786 25.6889 17.221 25.2972 17.8989 25.2671C17.9139 25.2671 17.929 25.2671 17.9441 25.2671C18.637 25.2671 19.1944 25.6588 19.2095 26.171C19.1944 26.6982 18.622 27.105 17.9139 27.0899Z" fill="#0078F0"></path><path d="M10.9994 23.9715C10.3365 23.9865 9.76408 23.8208 9.29708 23.384C8.72463 22.8567 8.72463 22.1487 9.28202 21.6064C10.0955 20.8079 11.8128 20.7778 12.6565 21.5612C13.2892 22.1487 13.2741 22.8868 12.6113 23.4442C12.1443 23.8359 11.5869 24.0016 10.9994 23.9715Z" fill="#0078F0"></path><path d="M12.4757 29.0482C11.8881 29.0633 11.391 28.9126 10.9692 28.536C10.4721 28.069 10.457 27.4363 10.9541 26.9693C11.6772 26.2613 13.1837 26.2462 13.9369 26.9241C14.4943 27.4363 14.4792 28.0991 13.9068 28.5812C13.485 28.9277 12.9878 29.0633 12.4757 29.0482Z" fill="#0078F0"></path><path d="M16.7088 33.206C16.1966 33.2211 15.7447 33.0855 15.3681 32.7541C14.9161 32.3473 14.9161 31.7899 15.353 31.3681C16.0008 30.7354 17.3265 30.7204 17.9893 31.338C18.4864 31.7899 18.4714 32.3774 17.9592 32.8143C17.5976 33.1005 17.1607 33.2361 16.7088 33.206Z" fill="#0078F0"></path><path d="M69.84 46.426C69.9053 45.5673 70.2367 44.8953 70.834 44.41C71.4313 43.9247 72.206 43.682 73.158 43.682C73.7927 43.682 74.3387 43.7987 74.796 44.032C75.2627 44.256 75.6127 44.564 75.846 44.956C76.0887 45.348 76.21 45.7913 76.21 46.286C76.21 46.8647 76.042 47.364 75.706 47.784C75.3793 48.204 74.95 48.4747 74.418 48.596V48.666C75.0247 48.8153 75.5053 49.1093 75.86 49.548C76.2147 49.9867 76.392 50.5607 76.392 51.27C76.392 51.802 76.2707 52.2827 76.028 52.712C75.7853 53.132 75.4213 53.4633 74.936 53.706C74.4507 53.9487 73.8673 54.07 73.186 54.07C72.1967 54.07 71.3847 53.8133 70.75 53.3C70.1153 52.7773 69.7607 52.04 69.686 51.088H70.918C70.9833 51.648 71.212 52.1053 71.604 52.46C71.996 52.8147 72.5187 52.992 73.172 52.992C73.8253 52.992 74.32 52.824 74.656 52.488C75.0013 52.1427 75.174 51.6993 75.174 51.158C75.174 50.458 74.9407 49.954 74.474 49.646C74.0073 49.338 73.3027 49.184 72.36 49.184H72.038V48.12H72.374C73.2327 48.1107 73.8813 47.9707 74.32 47.7C74.7587 47.42 74.978 46.9907 74.978 46.412C74.978 45.9173 74.8147 45.5207 74.488 45.222C74.1707 44.9233 73.7133 44.774 73.116 44.774C72.5373 44.774 72.0707 44.9233 71.716 45.222C71.3613 45.5207 71.1513 45.922 71.086 46.426H69.84ZM81.3601 44.242C82.4241 44.242 83.3435 44.4427 84.1181 44.844C84.9021 45.236 85.4995 45.8007 85.9101 46.538C86.3301 47.2753 86.5401 48.1433 86.5401 49.142C86.5401 50.1407 86.3301 51.0087 85.9101 51.746C85.4995 52.474 84.9021 53.034 84.1181 53.426C83.3435 53.8087 82.4241 54 81.3601 54H78.3221V44.242H81.3601ZM81.3601 52.95C82.6201 52.95 83.5815 52.6187 84.2441 51.956C84.9068 51.284 85.2381 50.346 85.2381 49.142C85.2381 47.9287 84.9021 46.9813 84.2301 46.3C83.5675 45.6187 82.6108 45.278 81.3601 45.278H79.5961V52.95H81.3601ZM100.017 44.242L96.335 54H94.865L91.183 44.242H92.541L95.607 52.656L98.673 44.242H100.017ZM102.072 45.082C101.829 45.082 101.624 44.998 101.456 44.83C101.288 44.662 101.204 44.4567 101.204 44.214C101.204 43.9713 101.288 43.766 101.456 43.598C101.624 43.43 101.829 43.346 102.072 43.346C102.305 43.346 102.501 43.43 102.66 43.598C102.828 43.766 102.912 43.9713 102.912 44.214C102.912 44.4567 102.828 44.662 102.66 44.83C102.501 44.998 102.305 45.082 102.072 45.082ZM102.688 46.328V54H101.414V46.328H102.688ZM107.575 54.126C106.987 54.126 106.46 54.028 105.993 53.832C105.527 53.6267 105.158 53.3467 104.887 52.992C104.617 52.628 104.467 52.2127 104.439 51.746H105.755C105.793 52.1287 105.97 52.4413 106.287 52.684C106.614 52.9267 107.039 53.048 107.561 53.048C108.047 53.048 108.429 52.9407 108.709 52.726C108.989 52.5113 109.129 52.2407 109.129 51.914C109.129 51.578 108.98 51.3307 108.681 51.172C108.383 51.004 107.921 50.8407 107.295 50.682C106.726 50.5327 106.259 50.3833 105.895 50.234C105.541 50.0753 105.233 49.8467 104.971 49.548C104.719 49.24 104.593 48.8387 104.593 48.344C104.593 47.952 104.71 47.5927 104.943 47.266C105.177 46.9393 105.508 46.6827 105.937 46.496C106.367 46.3 106.857 46.202 107.407 46.202C108.257 46.202 108.943 46.4167 109.465 46.846C109.988 47.2753 110.268 47.8633 110.305 48.61H109.031C109.003 48.2087 108.84 47.8867 108.541 47.644C108.252 47.4013 107.86 47.28 107.365 47.28C106.908 47.28 106.544 47.378 106.273 47.574C106.003 47.77 105.867 48.0267 105.867 48.344C105.867 48.596 105.947 48.806 106.105 48.974C106.273 49.1327 106.479 49.2633 106.721 49.366C106.973 49.4593 107.319 49.5667 107.757 49.688C108.308 49.8373 108.756 49.9867 109.101 50.136C109.447 50.276 109.741 50.4907 109.983 50.78C110.235 51.0693 110.366 51.4473 110.375 51.914C110.375 52.334 110.259 52.712 110.025 53.048C109.792 53.384 109.461 53.65 109.031 53.846C108.611 54.0327 108.126 54.126 107.575 54.126ZM112.832 45.082C112.589 45.082 112.384 44.998 112.216 44.83C112.048 44.662 111.964 44.4567 111.964 44.214C111.964 43.9713 112.048 43.766 112.216 43.598C112.384 43.43 112.589 43.346 112.832 43.346C113.065 43.346 113.261 43.43 113.42 43.598C113.588 43.766 113.672 43.9713 113.672 44.214C113.672 44.4567 113.588 44.662 113.42 44.83C113.261 44.998 113.065 45.082 112.832 45.082ZM113.448 46.328V54H112.174V46.328H113.448ZM118.965 54.126C118.246 54.126 117.593 53.9627 117.005 53.636C116.426 53.3093 115.969 52.8473 115.633 52.25C115.306 51.6433 115.143 50.9433 115.143 50.15C115.143 49.366 115.311 48.6753 115.647 48.078C115.992 47.4713 116.459 47.0093 117.047 46.692C117.635 46.3653 118.293 46.202 119.021 46.202C119.749 46.202 120.407 46.3653 120.995 46.692C121.583 47.0093 122.045 47.4667 122.381 48.064C122.726 48.6613 122.899 49.3567 122.899 50.15C122.899 50.9433 122.722 51.6433 122.367 52.25C122.022 52.8473 121.55 53.3093 120.953 53.636C120.356 53.9627 119.693 54.126 118.965 54.126ZM118.965 53.006C119.422 53.006 119.852 52.8987 120.253 52.684C120.654 52.4693 120.976 52.1473 121.219 51.718C121.471 51.2887 121.597 50.766 121.597 50.15C121.597 49.534 121.476 49.0113 121.233 48.582C120.99 48.1527 120.673 47.8353 120.281 47.63C119.889 47.4153 119.464 47.308 119.007 47.308C118.54 47.308 118.111 47.4153 117.719 47.63C117.336 47.8353 117.028 48.1527 116.795 48.582C116.562 49.0113 116.445 49.534 116.445 50.15C116.445 50.7753 116.557 51.3027 116.781 51.732C117.014 52.1613 117.322 52.4833 117.705 52.698C118.088 52.9033 118.508 53.006 118.965 53.006ZM128.312 46.188C129.245 46.188 130.001 46.4727 130.58 47.042C131.159 47.602 131.448 48.414 131.448 49.478V54H130.188V49.66C130.188 48.8947 129.997 48.3113 129.614 47.91C129.231 47.4993 128.709 47.294 128.046 47.294C127.374 47.294 126.837 47.504 126.436 47.924C126.044 48.344 125.848 48.9553 125.848 49.758V54H124.574V46.328H125.848V47.42C126.1 47.028 126.441 46.7247 126.87 46.51C127.309 46.2953 127.789 46.188 128.312 46.188ZM140.384 47.378H138.774V54H137.5V47.378H136.506V46.328H137.5V45.782C137.5 44.9233 137.719 44.298 138.158 43.906C138.606 43.5047 139.32 43.304 140.3 43.304V44.368C139.74 44.368 139.343 44.48 139.11 44.704C138.886 44.9187 138.774 45.278 138.774 45.782V46.328H140.384V47.378ZM145.215 54.126C144.496 54.126 143.843 53.9627 143.255 53.636C142.676 53.3093 142.219 52.8473 141.883 52.25C141.556 51.6433 141.393 50.9433 141.393 50.15C141.393 49.366 141.561 48.6753 141.897 48.078C142.242 47.4713 142.709 47.0093 143.297 46.692C143.885 46.3653 144.543 46.202 145.271 46.202C145.999 46.202 146.657 46.3653 147.245 46.692C147.833 47.0093 148.295 47.4667 148.631 48.064C148.976 48.6613 149.149 49.3567 149.149 50.15C149.149 50.9433 148.972 51.6433 148.617 52.25C148.272 52.8473 147.8 53.3093 147.203 53.636C146.606 53.9627 145.943 54.126 145.215 54.126ZM145.215 53.006C145.672 53.006 146.102 52.8987 146.503 52.684C146.904 52.4693 147.226 52.1473 147.469 51.718C147.721 51.2887 147.847 50.766 147.847 50.15C147.847 49.534 147.726 49.0113 147.483 48.582C147.24 48.1527 146.923 47.8353 146.531 47.63C146.139 47.4153 145.714 47.308 145.257 47.308C144.79 47.308 144.361 47.4153 143.969 47.63C143.586 47.8353 143.278 48.1527 143.045 48.582C142.812 49.0113 142.695 49.534 142.695 50.15C142.695 50.7753 142.807 51.3027 143.031 51.732C143.264 52.1613 143.572 52.4833 143.955 52.698C144.338 52.9033 144.758 53.006 145.215 53.006ZM152.098 47.574C152.322 47.1353 152.639 46.7947 153.05 46.552C153.47 46.3093 153.979 46.188 154.576 46.188V47.504H154.24C152.812 47.504 152.098 48.2787 152.098 49.828V54H150.824V46.328H152.098V47.574ZM159.303 50.136C159.303 49.352 159.462 48.666 159.779 48.078C160.097 47.4807 160.531 47.0187 161.081 46.692C161.641 46.3653 162.262 46.202 162.943 46.202C163.615 46.202 164.199 46.3467 164.693 46.636C165.188 46.9253 165.557 47.2893 165.799 47.728V46.328H167.087V54H165.799V52.572C165.547 53.02 165.169 53.3933 164.665 53.692C164.171 53.9813 163.592 54.126 162.929 54.126C162.248 54.126 161.632 53.958 161.081 53.622C160.531 53.286 160.097 52.8147 159.779 52.208C159.462 51.6013 159.303 50.9107 159.303 50.136ZM165.799 50.15C165.799 49.5713 165.683 49.0673 165.449 48.638C165.216 48.2087 164.899 47.882 164.497 47.658C164.105 47.4247 163.671 47.308 163.195 47.308C162.719 47.308 162.285 47.42 161.893 47.644C161.501 47.868 161.189 48.1947 160.955 48.624C160.722 49.0533 160.605 49.5573 160.605 50.136C160.605 50.724 160.722 51.2373 160.955 51.676C161.189 52.1053 161.501 52.4367 161.893 52.67C162.285 52.894 162.719 53.006 163.195 53.006C163.671 53.006 164.105 52.894 164.497 52.67C164.899 52.4367 165.216 52.1053 165.449 51.676C165.683 51.2373 165.799 50.7287 165.799 50.15ZM172.735 46.426C172.8 45.5673 173.131 44.8953 173.729 44.41C174.326 43.9247 175.101 43.682 176.053 43.682C176.687 43.682 177.233 43.7987 177.691 44.032C178.157 44.256 178.507 44.564 178.741 44.956C178.983 45.348 179.105 45.7913 179.105 46.286C179.105 46.8647 178.937 47.364 178.601 47.784C178.274 48.204 177.845 48.4747 177.313 48.596V48.666C177.919 48.8153 178.4 49.1093 178.755 49.548C179.109 49.9867 179.287 50.5607 179.287 51.27C179.287 51.802 179.165 52.2827 178.923 52.712C178.68 53.132 178.316 53.4633 177.831 53.706C177.345 53.9487 176.762 54.07 176.081 54.07C175.091 54.07 174.279 53.8133 173.645 53.3C173.01 52.7773 172.655 52.04 172.581 51.088H173.813C173.878 51.648 174.107 52.1053 174.499 52.46C174.891 52.8147 175.413 52.992 176.067 52.992C176.72 52.992 177.215 52.824 177.551 52.488C177.896 52.1427 178.069 51.6993 178.069 51.158C178.069 50.458 177.835 49.954 177.369 49.646C176.902 49.338 176.197 49.184 175.255 49.184H174.933V48.12H175.269C176.127 48.1107 176.776 47.9707 177.215 47.7C177.653 47.42 177.873 46.9907 177.873 46.412C177.873 45.9173 177.709 45.5207 177.383 45.222C177.065 44.9233 176.608 44.774 176.011 44.774C175.432 44.774 174.965 44.9233 174.611 45.222C174.256 45.5207 174.046 45.922 173.981 46.426H172.735ZM184.255 44.242C185.319 44.242 186.238 44.4427 187.013 44.844C187.797 45.236 188.394 45.8007 188.805 46.538C189.225 47.2753 189.435 48.1433 189.435 49.142C189.435 50.1407 189.225 51.0087 188.805 51.746C188.394 52.474 187.797 53.034 187.013 53.426C186.238 53.8087 185.319 54 184.255 54H181.217V44.242H184.255ZM184.255 52.95C185.515 52.95 186.476 52.6187 187.139 51.956C187.801 51.284 188.133 50.346 188.133 49.142C188.133 47.9287 187.797 46.9813 187.125 46.3C186.462 45.6187 185.505 45.278 184.255 45.278H182.491V52.95H184.255ZM207.112 44.242L204.284 54H202.856L200.588 46.146L198.236 54L196.822 54.014L194.092 44.242H195.45L197.578 52.516L199.93 44.242H201.358L203.598 52.488L205.74 44.242H207.112ZM211.852 54.126C211.133 54.126 210.48 53.9627 209.892 53.636C209.313 53.3093 208.856 52.8473 208.52 52.25C208.193 51.6433 208.03 50.9433 208.03 50.15C208.03 49.366 208.198 48.6753 208.534 48.078C208.879 47.4713 209.346 47.0093 209.934 46.692C210.522 46.3653 211.18 46.202 211.908 46.202C212.636 46.202 213.294 46.3653 213.882 46.692C214.47 47.0093 214.932 47.4667 215.268 48.064C215.613 48.6613 215.786 49.3567 215.786 50.15C215.786 50.9433 215.608 51.6433 215.254 52.25C214.908 52.8473 214.437 53.3093 213.84 53.636C213.242 53.9627 212.58 54.126 211.852 54.126ZM211.852 53.006C212.309 53.006 212.738 52.8987 213.14 52.684C213.541 52.4693 213.863 52.1473 214.106 51.718C214.358 51.2887 214.484 50.766 214.484 50.15C214.484 49.534 214.362 49.0113 214.12 48.582C213.877 48.1527 213.56 47.8353 213.168 47.63C212.776 47.4153 212.351 47.308 211.894 47.308C211.427 47.308 210.998 47.4153 210.606 47.63C210.223 47.8353 209.915 48.1527 209.682 48.582C209.448 49.0113 209.332 49.534 209.332 50.15C209.332 50.7753 209.444 51.3027 209.668 51.732C209.901 52.1613 210.209 52.4833 210.592 52.698C210.974 52.9033 211.394 53.006 211.852 53.006ZM218.735 47.574C218.959 47.1353 219.276 46.7947 219.687 46.552C220.107 46.3093 220.615 46.188 221.213 46.188V47.504H220.877C219.449 47.504 218.735 48.2787 218.735 49.828V54H217.461V46.328H218.735V47.574ZM223.957 43.64V54H222.683V43.64H223.957ZM225.653 50.136C225.653 49.352 225.811 48.666 226.129 48.078C226.446 47.4807 226.88 47.0187 227.431 46.692C227.991 46.3653 228.616 46.202 229.307 46.202C229.904 46.202 230.459 46.342 230.973 46.622C231.486 46.8927 231.878 47.252 232.149 47.7V43.64H233.437V54H232.149V52.558C231.897 53.0153 231.523 53.3933 231.029 53.692C230.534 53.9813 229.955 54.126 229.293 54.126C228.611 54.126 227.991 53.958 227.431 53.622C226.88 53.286 226.446 52.8147 226.129 52.208C225.811 51.6013 225.653 50.9107 225.653 50.136ZM232.149 50.15C232.149 49.5713 232.032 49.0673 231.799 48.638C231.565 48.2087 231.248 47.882 230.847 47.658C230.455 47.4247 230.021 47.308 229.545 47.308C229.069 47.308 228.635 47.42 228.243 47.644C227.851 47.868 227.538 48.1947 227.305 48.624C227.071 49.0533 226.955 49.5573 226.955 50.136C226.955 50.724 227.071 51.2373 227.305 51.676C227.538 52.1053 227.851 52.4367 228.243 52.67C228.635 52.894 229.069 53.006 229.545 53.006C230.021 53.006 230.455 52.894 230.847 52.67C231.248 52.4367 231.565 52.1053 231.799 51.676C232.032 51.2373 232.149 50.7287 232.149 50.15Z" fill="white"></path></svg>